<mxfile host="app.diagrams.net" agent="Mozilla/5.0 (Macintosh; Intel Mac OS X 10_15_7) AppleWebKit/537.36 (KHTML, like Gecko) Chrome/134.0.0.0 Safari/537.36" version="24.7.16">
  <diagram id="C5RBs43oDa-KdzZeNtuy" name="Page-1">
    <mxGraphModel dx="1286" dy="726" grid="1" gridSize="10" guides="1" tooltips="1" connect="1" arrows="1" fold="1" page="1" pageScale="1" pageWidth="827" pageHeight="1169" math="0" shadow="0">
      <root>
        <mxCell id="WIyWlLk6GJQsqaUBKTNV-0" />
        <mxCell id="WIyWlLk6GJQsqaUBKTNV-1" parent="WIyWlLk6GJQsqaUBKTNV-0" />
        <mxCell id="HRMdm2bE6HIDM_SxVs4Q-2" style="edgeStyle=none;curved=1;rounded=0;orthogonalLoop=1;jettySize=auto;html=1;entryX=0.5;entryY=0;entryDx=0;entryDy=0;fontSize=12;startSize=8;endSize=8;" edge="1" parent="WIyWlLk6GJQsqaUBKTNV-1" source="WIyWlLk6GJQsqaUBKTNV-3" target="HRMdm2bE6HIDM_SxVs4Q-1">
          <mxGeometry relative="1" as="geometry" />
        </mxCell>
        <mxCell id="WIyWlLk6GJQsqaUBKTNV-3" value="&lt;div&gt;&lt;span style=&quot;font-size: 12px;&quot;&gt;&amp;nbsp;Factory Selects&amp;nbsp;&amp;nbsp;&lt;/span&gt;&lt;/div&gt;&lt;div&gt;&lt;span style=&quot;font-size: 12px;&quot;&gt;&amp;nbsp; &amp;nbsp; Farmer Based on&amp;nbsp;&lt;/span&gt;&lt;span style=&quot;background-color: initial;&quot;&gt;&amp;nbsp; Crop Availability&lt;/span&gt;&lt;/div&gt;" style="rounded=1;whiteSpace=wrap;html=1;fontSize=12;glass=0;strokeWidth=1;shadow=0;" parent="WIyWlLk6GJQsqaUBKTNV-1" vertex="1">
          <mxGeometry x="160" y="60" width="140" height="60" as="geometry" />
        </mxCell>
        <mxCell id="HRMdm2bE6HIDM_SxVs4Q-8" style="edgeStyle=none;curved=1;rounded=0;orthogonalLoop=1;jettySize=auto;html=1;entryX=0.5;entryY=0;entryDx=0;entryDy=0;fontSize=12;startSize=8;endSize=8;" edge="1" parent="WIyWlLk6GJQsqaUBKTNV-1" source="HRMdm2bE6HIDM_SxVs4Q-1" target="HRMdm2bE6HIDM_SxVs4Q-3">
          <mxGeometry relative="1" as="geometry" />
        </mxCell>
        <mxCell id="HRMdm2bE6HIDM_SxVs4Q-1" value="&lt;div&gt;&lt;span style=&quot;font-size: 12px;&quot;&gt;Contract Request&amp;nbsp;&lt;/span&gt;&lt;/div&gt;&lt;div&gt;&lt;span style=&quot;font-size: 12px;&quot;&gt;Sent to Farmer&amp;nbsp;&lt;/span&gt;&lt;/div&gt;" style="rounded=1;whiteSpace=wrap;html=1;fontSize=12;glass=0;strokeWidth=1;shadow=0;" vertex="1" parent="WIyWlLk6GJQsqaUBKTNV-1">
          <mxGeometry x="160" y="160" width="140" height="60" as="geometry" />
        </mxCell>
        <mxCell id="HRMdm2bE6HIDM_SxVs4Q-9" style="edgeStyle=none;curved=1;rounded=0;orthogonalLoop=1;jettySize=auto;html=1;entryX=0.5;entryY=0;entryDx=0;entryDy=0;fontSize=12;startSize=8;endSize=8;" edge="1" parent="WIyWlLk6GJQsqaUBKTNV-1" source="HRMdm2bE6HIDM_SxVs4Q-3" target="HRMdm2bE6HIDM_SxVs4Q-4">
          <mxGeometry relative="1" as="geometry" />
        </mxCell>
        <mxCell id="HRMdm2bE6HIDM_SxVs4Q-3" value="&lt;div&gt;&lt;span style=&quot;font-size: 12px;&quot;&gt;Farmer Reviews&amp;nbsp; &lt;/span&gt;&lt;span style=&quot;background-color: initial;&quot;&gt;Contract Terms&amp;nbsp;&lt;/span&gt;&lt;/div&gt;" style="rounded=1;whiteSpace=wrap;html=1;fontSize=12;glass=0;strokeWidth=1;shadow=0;" vertex="1" parent="WIyWlLk6GJQsqaUBKTNV-1">
          <mxGeometry x="160" y="260" width="140" height="60" as="geometry" />
        </mxCell>
        <mxCell id="HRMdm2bE6HIDM_SxVs4Q-10" style="edgeStyle=none;curved=1;rounded=0;orthogonalLoop=1;jettySize=auto;html=1;entryX=0.5;entryY=1;entryDx=0;entryDy=0;fontSize=12;startSize=8;endSize=8;" edge="1" parent="WIyWlLk6GJQsqaUBKTNV-1" source="HRMdm2bE6HIDM_SxVs4Q-4" target="HRMdm2bE6HIDM_SxVs4Q-5">
          <mxGeometry relative="1" as="geometry" />
        </mxCell>
        <mxCell id="HRMdm2bE6HIDM_SxVs4Q-4" value="&lt;div&gt;&lt;span style=&quot;font-size: 12px;&quot;&gt;Contract Accepted&amp;nbsp; &amp;nbsp; &amp;nbsp;&lt;/span&gt;&lt;/div&gt;&lt;div&gt;&lt;span style=&quot;font-size: 12px;&quot;&gt;&amp;nbsp; Hashed on Blockchain&lt;/span&gt;&lt;/div&gt;" style="rounded=1;whiteSpace=wrap;html=1;fontSize=12;glass=0;strokeWidth=1;shadow=0;" vertex="1" parent="WIyWlLk6GJQsqaUBKTNV-1">
          <mxGeometry x="270" y="360" width="140" height="60" as="geometry" />
        </mxCell>
        <mxCell id="HRMdm2bE6HIDM_SxVs4Q-11" style="edgeStyle=none;curved=1;rounded=0;orthogonalLoop=1;jettySize=auto;html=1;exitX=0.5;exitY=0;exitDx=0;exitDy=0;entryX=0.5;entryY=1;entryDx=0;entryDy=0;fontSize=12;startSize=8;endSize=8;" edge="1" parent="WIyWlLk6GJQsqaUBKTNV-1" source="HRMdm2bE6HIDM_SxVs4Q-5" target="HRMdm2bE6HIDM_SxVs4Q-6">
          <mxGeometry relative="1" as="geometry" />
        </mxCell>
        <mxCell id="HRMdm2bE6HIDM_SxVs4Q-5" value="&lt;div&gt;&lt;span style=&quot;font-size: 12px;&quot;&gt;Smart Contract&amp;nbsp; &lt;/span&gt;E&lt;span style=&quot;background-color: initial;&quot;&gt;xecution &amp;amp; Payment&amp;nbsp;&lt;/span&gt;&lt;/div&gt;" style="rounded=1;whiteSpace=wrap;html=1;fontSize=12;glass=0;strokeWidth=1;shadow=0;" vertex="1" parent="WIyWlLk6GJQsqaUBKTNV-1">
          <mxGeometry x="360" y="260" width="140" height="60" as="geometry" />
        </mxCell>
        <mxCell id="HRMdm2bE6HIDM_SxVs4Q-12" style="edgeStyle=none;curved=1;rounded=0;orthogonalLoop=1;jettySize=auto;html=1;exitX=0.5;exitY=0;exitDx=0;exitDy=0;fontSize=12;startSize=8;endSize=8;" edge="1" parent="WIyWlLk6GJQsqaUBKTNV-1" source="HRMdm2bE6HIDM_SxVs4Q-6">
          <mxGeometry relative="1" as="geometry">
            <mxPoint x="429.95238095238096" y="120.00000000000006" as="targetPoint" />
          </mxGeometry>
        </mxCell>
        <mxCell id="HRMdm2bE6HIDM_SxVs4Q-6" value="&lt;div&gt;&lt;span style=&quot;font-size: 12px;&quot;&gt;Smart Contract&amp;nbsp; &lt;/span&gt;E&lt;span style=&quot;background-color: initial;&quot;&gt;xecution &amp;amp; Payment&amp;nbsp;&lt;/span&gt;&lt;/div&gt;" style="rounded=1;whiteSpace=wrap;html=1;fontSize=12;glass=0;strokeWidth=1;shadow=0;" vertex="1" parent="WIyWlLk6GJQsqaUBKTNV-1">
          <mxGeometry x="360" y="160" width="140" height="60" as="geometry" />
        </mxCell>
        <mxCell id="HRMdm2bE6HIDM_SxVs4Q-7" value="&lt;div&gt;&lt;span style=&quot;font-size: 12px;&quot;&gt;Secure, Auditable&amp;nbsp;&lt;/span&gt;&lt;/div&gt;&lt;div&gt;&lt;span style=&quot;font-size: 12px;&quot;&gt;&amp;nbsp; &amp;nbsp; &amp;nbsp; Transactions Stored&amp;nbsp;&amp;nbsp;&lt;/span&gt;&lt;span style=&quot;background-color: initial;&quot;&gt;&amp;nbsp; on Blockchain&lt;/span&gt;&lt;/div&gt;" style="rounded=1;whiteSpace=wrap;html=1;fontSize=12;glass=0;strokeWidth=1;shadow=0;" vertex="1" parent="WIyWlLk6GJQsqaUBKTNV-1">
          <mxGeometry x="360" y="60" width="140" height="60" as="geometry" />
        </mxCell>
      </root>
    </mxGraphModel>
  </diagram>
</mxfile>
